<svg width="353" height="41" xmlns="http://www.w3.org/2000/svg"><g fill="none" fill-rule="evenodd"><path stroke="#D8D8D8" fill="#FFF" d="M39.5 6.5h313v29h-313z"/><path d="M14.5 0C6.5 0 0 4.43 0 9.89v21.22C0 36.57 6.5 41 14.5 41S29 36.57 29 31.11V9.9C29 4.43 22.5 0 14.5 0" fill="#2CABE1"/><path d="M27.9 24.84v5.89c0 5.14-6.01 9.3-13.43 9.3s-13.44-4.16-13.44-9.3v-5.88c0 5.13 6.02 9.3 13.44 9.3s13.44-4.17 13.44-9.3" fill="#2180A9"/><path d="M28.02 17.28v6.1c0 5.31-6.05 9.62-13.5 9.62-7.46 0-13.5-4.3-13.5-9.62v-6.1c0 5.33 6.04 9.64 13.5 9.64 7.45 0 13.5-4.31 13.5-9.63" fill="#2180A9"/><path d="M8.84 13.85a3.25 3.25 0 0 1 .28-.25l.15-.11.07-.06.22-.16.24-.15.08-.05.17-.1.1-.05a9.5 9.5 0 0 1 .45-.23l.08-.05c.1-.04.19-.14.28-.14.1 0 .2-.06.3-.1.02 0 .06 0 .09-.02l.2-.07.12-.03.2-.06c.04 0 .08-.02.11-.03a7.21 7.21 0 0 1 .65-.15 9.98 9.98 0 0 1 1.91-.18c2.29 0 4.43.78 5.77 2.06a7.68 7.68 0 0 1-3.87 1.88c-.64.13-1.28.19-1.9.19a8.46 8.46 0 0 1-5.78-2.07l.08-.07m16.7-4.32V5.6a.27.27 0 0 0-.07-.2l-.1-.12c-.14-.15-.57-.21-1.13-.21-1.02 0-2.43.19-3.29.32a8.75 8.75 0 0 0-1.36-.68v-.1c0-1-.13-2.53-.75-2.7l-.19-.06a.58.58 0 0 0-.14-.02c-.79 0-2.52 1.28-3.37 1.95a14.64 14.64 0 0 0-1.7.03c-.79-.78-2.12-1.97-2.8-1.97h-.1l-.2.03c-.71.14-1.09 2.06-1.23 3.02-.48.22-.93.46-1.34.73-.98-.23-2.42-.52-3.3-.52-.32 0-.57.04-.69.14l-.17.1a.35.35 0 0 0-.14.25v4.13c-1.05.3-2.38.71-2.4 1.07l-.05.14v6.03c0 .38 1.4.93 2.45 1.35v3.92c0 .02.05.05.05.07l.02.03.06.09.1.12c.14.16.57.22 1.13.22 1.02 0 2.49-.2 3.35-.33.44.26.9.49 1.42.69v.09l-.03.06-.02.08V24l.02.12v.1l.02.12v.1l.02.11a3.65 3.65 0 0 0 .1.5c0 .04 0 .08.02.1l.02.1.03.09.03.07.04.09.03.06.04.08.04.05.05.07.04.04.06.05.04.02c.03.03.07.04.1.05l.18.07.14.01c.79 0 2.51-1.27 3.37-1.95a14.31 14.31 0 0 0 1.69-.03c.8.78 2.12 1.98 2.8 1.98a.5.5 0 0 0 .1-.01l.2-.02c.72-.14 1.09-2.06 1.23-3.03.48-.21.93-.46 1.35-.72.98.22 2.41.52 3.28.52.33 0 .58-.04.7-.14l.14-.1a.26.26 0 0 0 .04-.05l.01-.02a.4.4 0 0 0 .02-.03v-.03l.02-.04v-.03l.01-.04.01-.02v-4.12c1.23-.31 2.39-.72 2.41-1.08l.04-.14v-6.03c0-.38-1.22-.92-2.45-1.34" fill="#2180A9"/><path d="M16.44 15.8c3.82-.74 6.07-3.53 5.02-6.24-.88-2.26-3.77-3.74-6.92-3.74-.63 0-1.27.06-1.9.19-3.83.74-6.08 3.54-5.03 6.24.88 2.26 3.77 3.74 6.92 3.74.63 0 1.27-.06 1.9-.19m7.85-6.7c1.25.4 3.72 1.25 3.69 1.77l-.04.14c-.03.48-2.18 1.04-3.53 1.35-.12.4-.28.78-.49 1.15.69.83 1.98 2.54 1.52 2.95l-.14.1c-.12.1-.37.15-.7.15-.87 0-2.3-.3-3.28-.53-.42.27-.87.52-1.35.73-.14.96-.51 2.88-1.23 3.02l-.2.02-.1.01c-.68 0-2-1.2-2.8-1.97a13.83 13.83 0 0 1-1.69.03c-.86.67-2.58 1.95-3.37 1.95-.05 0-.1 0-.14-.02l-.17-.06c-.64-.17-.73-1.8-.73-2.8-.48-.2-.95-.42-1.39-.68-.86.13-2.29.32-3.3.32-.56 0-1-.05-1.14-.21l-.09-.13c-.37-.4.9-1.75 1.74-2.56a5.95 5.95 0 0 1-.53-1.04l-.03-.09c-1.25-.39-3.72-1.23-3.68-1.76l.03-.14c.03-.48 2.18-1.04 3.54-1.35.11-.39.27-.77.48-1.14-.69-.84-1.98-2.55-1.52-2.96l.15-.1c.11-.1.36-.15.69-.14.87 0 2.3.29 3.29.52.41-.27.86-.51 1.34-.73.14-.96.52-2.88 1.23-3.02l.2-.02.1-.01c.68 0 2.01 1.2 2.8 1.97a14.45 14.45 0 0 1 1.7-.03c.85-.67 2.58-1.95 3.36-1.95.05 0 .1 0 .14.02l.18.06c.63.17.72 1.8.72 2.8.49.2.95.43 1.39.68.86-.13 2.29-.32 3.3-.32.57 0 1 .06 1.14.21l.1.13c.37.4-.9 1.75-1.75 2.56.21.33.39.68.53 1.04l.03.09" fill="#2A9ACC"/><path d="M51.1 27.04c1.79 0 3.04-.44 3.75-1.33.71-.88 1.07-2.48 1.07-4.78 0-2.33-.36-3.94-1.06-4.82-.71-.89-1.96-1.33-3.77-1.33h-1.01v12.26h1.01zm.04-14.01c2.4 0 4.18.64 5.32 1.92 1.14 1.28 1.7 3.27 1.7 5.98 0 2.68-.56 4.67-1.7 5.94-1.14 1.28-2.92 1.92-5.32 1.92h-3.2V13.03h3.2zm17.6 9.82h-2.46a4.5 4.5 0 0 0-2.56.6c-.58.4-.87.98-.87 1.77 0 .71.22 1.27.65 1.66.43.4 1.02.6 1.78.6a3.1 3.1 0 0 0 2.53-1.12c.6-.75.92-1.77.93-3.08v-.43zm1.95-.8v6.74h-1.95v-1.75a4 4 0 0 1-1.57 1.56c-.63.33-1.4.5-2.3.5-1.2 0-2.16-.34-2.88-1.02a3.58 3.58 0 0 1-1.08-2.73c0-1.32.44-2.32 1.33-3 .88-.68 2.18-1.02 3.89-1.02h2.6v-.3c0-.95-.24-1.64-.71-2.06-.47-.43-1.23-.64-2.26-.64-.66 0-1.33.1-2 .28-.68.2-1.34.47-1.98.84V17.5c.72-.27 1.4-.48 2.06-.61.66-.14 1.3-.2 1.92-.2.98 0 1.81.14 2.5.42.7.3 1.26.73 1.69 1.3.27.35.46.79.57 1.3.11.52.17 1.3.17 2.33zM79 13.6v3.36h4.41v1.5h-4.41v6.43c0 .87.16 1.48.5 1.82.32.35.9.52 1.73.52h2.18v1.55h-2.37c-1.46 0-2.49-.3-3.09-.88-.6-.58-.9-1.59-.9-3.01v-6.42h-3.15v-1.51h3.16V13.6H79zm15.76 9.24h-2.46a4.5 4.5 0 0 0-2.56.6c-.57.4-.86.98-.86 1.77 0 .71.21 1.27.64 1.66.43.4 1.03.6 1.79.6a3.1 3.1 0 0 0 2.52-1.12c.61-.75.92-1.77.93-3.08v-.43zm1.95-.8v6.74h-1.95v-1.75a4 4 0 0 1-1.57 1.56c-.63.33-1.4.5-2.3.5-1.2 0-2.16-.34-2.88-1.02a3.58 3.58 0 0 1-1.07-2.73c0-1.32.44-2.32 1.32-3 .89-.68 2.18-1.02 3.9-1.02h2.6v-.3c0-.95-.25-1.64-.72-2.06-.47-.43-1.22-.64-2.26-.64-.66 0-1.33.1-2 .28-.68.2-1.34.47-1.98.84V17.5c.72-.27 1.4-.48 2.07-.61.66-.14 1.3-.2 1.91-.2.98 0 1.82.14 2.51.42.7.3 1.26.73 1.68 1.3.27.35.46.79.57 1.3.12.52.17 1.3.17 2.33zm11.53.84c0-1.5-.24-2.64-.72-3.41a2.34 2.34 0 0 0-2.12-1.15c-.94 0-1.65.38-2.14 1.15-.49.78-.73 1.91-.73 3.4 0 1.5.24 2.63.73 3.4.49.78 1.2 1.17 2.14 1.17.94 0 1.65-.38 2.12-1.15.48-.77.72-1.9.72-3.41zm-5.7-4.41c.3-.58.73-1.02 1.27-1.33a3.77 3.77 0 0 1 1.9-.47c1.42 0 2.54.55 3.36 1.64.81 1.1 1.22 2.6 1.22 4.53 0 1.95-.4 3.48-1.23 4.58a3.97 3.97 0 0 1-3.37 1.67 3.38 3.38 0 0 1-3.16-1.8v1.5h-1.94V12.35h1.94v6.12zm18.26 4.37h-2.46a4.5 4.5 0 0 0-2.56.6c-.58.4-.86.98-.86 1.77 0 .71.21 1.27.64 1.66.43.4 1.02.6 1.78.6a3.1 3.1 0 0 0 2.53-1.12c.6-.75.92-1.77.93-3.08v-.43zm1.95-.8v6.74h-1.95v-1.75a4 4 0 0 1-1.57 1.56c-.63.33-1.4.5-2.3.5-1.2 0-2.16-.34-2.88-1.02a3.58 3.58 0 0 1-1.08-2.73c0-1.32.44-2.32 1.33-3 .88-.68 2.18-1.02 3.89-1.02h2.6v-.3c0-.95-.24-1.64-.71-2.06-.47-.43-1.23-.64-2.26-.64-.66 0-1.33.1-2 .28-.68.2-1.34.47-1.98.84V17.5c.72-.27 1.4-.48 2.06-.61.66-.14 1.3-.2 1.92-.2.98 0 1.81.14 2.5.42.7.3 1.26.73 1.69 1.3.27.35.46.79.57 1.3.11.52.17 1.3.17 2.33zm12.1-4.67v1.9a7.4 7.4 0 0 0-1.67-.73 6.2 6.2 0 0 0-1.72-.24c-.88 0-1.54.14-1.97.42-.43.29-.65.72-.65 1.3 0 .54.16.93.49 1.2.32.25 1.13.5 2.41.75l.79.15c.96.18 1.69.55 2.19 1.1s.74 1.26.74 2.14a3.3 3.3 0 0 1-1.25 2.74c-.83.66-1.98.99-3.46.99-.58 0-1.2-.06-1.84-.19a16.8 16.8 0 0 1-2.08-.55v-2c.73.37 1.42.65 2.08.83.67.19 1.3.28 1.88.28a3.3 3.3 0 0 0 2-.52c.47-.35.7-.84.7-1.46 0-.9-.86-1.53-2.58-1.87l-.08-.02-.73-.15a4.65 4.65 0 0 1-2.45-1.1 2.87 2.87 0 0 1-.77-2.12c0-1.13.38-2 1.15-2.62a5.13 5.13 0 0 1 3.28-.93 9.35 9.35 0 0 1 3.55.7zm14.58 4.53v.95h-8.42v.06c-.05 1.61.26 2.77.93 3.47.67.7 1.62 1.06 2.84 1.06.62 0 1.27-.1 1.95-.3.67-.2 1.4-.5 2.16-.9v1.94c-.74.3-1.45.53-2.14.68-.68.15-1.35.23-1.99.23a5.62 5.62 0 0 1-4.3-1.66c-1.04-1.1-1.56-2.62-1.56-4.55 0-1.89.5-3.4 1.52-4.52a5.19 5.19 0 0 1 4.06-1.69c1.5 0 2.7.51 3.56 1.53a5.88 5.88 0 0 1 1.39 3.7zm-1.94-.57a3.77 3.77 0 0 0-.9-2.12c-.5-.6-1.24-.9-2.2-.9-.93 0-1.7.32-2.31.94-.6.62-.94 1.31-1 2.09l6.4-.01zm22.65-6.43l-2.25 8.06h4.5l-2.25-8.06zm-1.29-1.88h2.6l4.82 15.76h-2.21l-1.16-4.1h-5.52l-1.14 4.1h-2.21l4.82-15.76zm16.87 5.45v-6.12h1.94V28.8h-1.94V27.3a3.38 3.38 0 0 1-3.16 1.8 3.97 3.97 0 0 1-3.37-1.67c-.82-1.1-1.23-2.63-1.23-4.58 0-1.92.4-3.43 1.23-4.53a3.99 3.99 0 0 1 3.37-1.64c.7 0 1.34.15 1.88.46.54.3.97.75 1.28 1.34zm-5.72 4.4c0 1.52.24 2.65.72 3.42a2.34 2.34 0 0 0 2.12 1.15c.94 0 1.65-.39 2.14-1.16.5-.78.74-1.9.74-3.4s-.25-2.63-.74-3.4a2.38 2.38 0 0 0-2.14-1.16c-.93 0-1.64.38-2.12 1.15-.48.77-.72 1.9-.72 3.4zm16.81-4.71c.24-.5.55-.88.91-1.12.37-.25.82-.37 1.34-.37.95 0 1.62.37 2.01 1.1.4.74.59 2.12.59 4.16v6.85h-1.78v-6.77c0-1.66-.09-2.7-.28-3.1-.18-.41-.52-.61-1.02-.61-.56 0-.94.21-1.15.65-.2.43-.31 1.45-.31 3.06v6.77h-1.78v-6.77c0-1.69-.1-2.73-.3-3.12-.2-.4-.56-.6-1.08-.6-.51 0-.87.22-1.07.66-.2.43-.3 1.45-.3 3.06v6.77h-1.76V16.97h1.76v1.01c.23-.42.52-.74.87-.97.35-.22.74-.33 1.19-.33.53 0 .98.12 1.33.37.36.25.63.62.83 1.12zm9.22-1.16H211v10.27h3.85v1.51h-9.65v-1.5h3.86v-8.77h-3.03V17zm3.03-4.6H211v2.46h-1.94v-2.45zm17.75 9.05v7.33h-1.96v-7.33c0-1.06-.18-1.84-.56-2.34-.37-.5-.95-.75-1.75-.75-.9 0-1.6.32-2.1.97a4.51 4.51 0 0 0-.73 2.77v6.68h-1.94V16.97h1.94v1.77a3.66 3.66 0 0 1 3.5-2.06c1.21 0 2.1.4 2.7 1.19.6.8.9 1.99.9 3.6zm5.25-4.45h4.98v10.27h3.85v1.51h-9.65v-1.5h3.85v-8.77h-3.03V17zm3.03-4.6h1.95v2.46h-1.95v-2.45zm16.93 4.97v1.9a7.4 7.4 0 0 0-1.68-.73 6.2 6.2 0 0 0-1.72-.24c-.88 0-1.54.14-1.97.42-.43.29-.65.72-.65 1.3 0 .54.16.93.49 1.2.32.25 1.12.5 2.41.75l.78.15c.97.18 1.7.55 2.2 1.1.5.55.74 1.26.74 2.14a3.3 3.3 0 0 1-1.25 2.74c-.83.66-1.98.99-3.46.99-.58 0-1.2-.06-1.84-.19a16.8 16.8 0 0 1-2.08-.55v-2c.73.37 1.42.65 2.08.83.67.19 1.3.28 1.88.28a3.3 3.3 0 0 0 2-.52c.47-.35.7-.84.7-1.46 0-.9-.86-1.53-2.58-1.87l-.09-.02-.72-.15a4.65 4.65 0 0 1-2.45-1.1 2.87 2.87 0 0 1-.77-2.12c0-1.13.38-2 1.15-2.62a5.13 5.13 0 0 1 3.28-.93 9.35 9.35 0 0 1 3.55.7zm9.22-3.77v3.36h4.42v1.5h-4.42v6.43c0 .87.17 1.48.5 1.82.33.35.9.52 1.73.52h2.19v1.55h-2.38c-1.45 0-2.48-.3-3.08-.88-.6-.58-.9-1.59-.9-3.01v-6.42h-3.15v-1.51h3.15V13.6h1.94zm18.73 5.8a4.4 4.4 0 0 0-1.26-.71c-.43-.15-.9-.22-1.42-.22-1.2 0-2.13.38-2.77 1.14-.64.76-.96 1.85-.96 3.29v5.88h-1.96V16.97h1.96v2.3c.32-.83.82-1.47 1.49-1.92a4.82 4.82 0 0 1 3.73-.5c.42.13.81.32 1.2.57v1.99zm10.06 3.44h-2.46a4.5 4.5 0 0 0-2.56.6c-.58.4-.87.98-.87 1.77 0 .71.22 1.27.65 1.66.43.4 1.02.6 1.78.6a3.1 3.1 0 0 0 2.53-1.12c.6-.75.92-1.77.93-3.08v-.43zm1.95-.8v6.74h-1.95v-1.75a4 4 0 0 1-1.57 1.56c-.63.33-1.4.5-2.3.5-1.2 0-2.16-.34-2.88-1.02a3.58 3.58 0 0 1-1.08-2.73c0-1.32.44-2.32 1.33-3 .88-.68 2.18-1.02 3.89-1.02h2.6v-.3c0-.95-.24-1.64-.71-2.06-.47-.43-1.23-.64-2.26-.64-.66 0-1.33.1-2 .28-.68.2-1.34.47-1.98.84V17.5c.72-.27 1.4-.48 2.06-.61.66-.14 1.3-.2 1.92-.2.98 0 1.81.14 2.5.42.7.3 1.26.73 1.69 1.3.27.35.46.79.57 1.3.11.52.17 1.3.17 2.33zm8.32-8.44v3.36h4.41v1.5h-4.41v6.43c0 .87.16 1.48.5 1.82.32.35.9.52 1.73.52h2.18v1.55h-2.37c-1.46 0-2.49-.3-3.09-.88-.6-.58-.9-1.59-.9-3.01v-6.42h-3.15v-1.51h3.16V13.6h1.94zm13.04 4.72c-.99 0-1.73.38-2.24 1.15-.5.77-.76 1.9-.76 3.4s.25 2.64.76 3.41a2.5 2.5 0 0 0 2.24 1.16c.99 0 1.74-.39 2.25-1.16.5-.77.76-1.9.76-3.4s-.26-2.64-.76-3.41a2.52 2.52 0 0 0-2.25-1.15zm0-1.65c1.64 0 2.9.53 3.76 1.6.87 1.06 1.3 2.6 1.3 4.6 0 2.03-.43 3.57-1.3 4.63-.86 1.06-2.12 1.59-3.76 1.59-1.64 0-2.9-.53-3.76-1.6-.87-1.05-1.3-2.6-1.3-4.61 0-2.01.43-3.55 1.3-4.61.86-1.07 2.12-1.6 3.76-1.6zm18.7 2.73a4.4 4.4 0 0 0-1.26-.71c-.43-.15-.9-.22-1.42-.22-1.2 0-2.13.38-2.77 1.14-.64.76-.96 1.85-.96 3.29v5.88h-1.96V16.97h1.96v2.3c.32-.83.82-1.47 1.49-1.92a4.82 4.82 0 0 1 3.73-.5c.42.13.81.32 1.2.57v1.99zm11.1-2.03v1.9a7.4 7.4 0 0 0-1.68-.73 6.2 6.2 0 0 0-1.72-.24c-.88 0-1.53.14-1.97.42-.43.29-.65.72-.65 1.3 0 .54.17.93.49 1.2.32.25 1.13.5 2.42.75l.78.15c.96.18 1.7.55 2.19 1.1.5.55.74 1.26.74 2.14a3.3 3.3 0 0 1-1.24 2.74c-.83.66-1.99.99-3.47.99-.58 0-1.2-.06-1.83-.19a16.8 16.8 0 0 1-2.08-.55v-2c.72.37 1.42.65 2.08.83.66.19 1.29.28 1.88.28a3.3 3.3 0 0 0 2-.52c.46-.35.7-.84.7-1.46 0-.9-.86-1.53-2.59-1.87l-.08-.02-.73-.15a4.65 4.65 0 0 1-2.45-1.1 2.87 2.87 0 0 1-.77-2.12c0-1.13.38-2 1.15-2.62a5.13 5.13 0 0 1 3.28-.93 9.35 9.35 0 0 1 3.55.7z" fill="#2B2B2B"/></g></svg>