<svg width="350" height="51" xmlns="http://www.w3.org/2000/svg"><g fill="none" fill-rule="evenodd"><path fill="#D0D2D3" fill-rule="nonzero" d="M129 39l3.49-.35 1.34-2.68.17-17.21-1.92-1.2-1.65-3.56-.24 23.03zM18 33l1.73-3.86 1.85-9.98V3.14L23 1l-3.63.54L18 3.82zM87 48.37l2.86-1.88-.9-2.49 2.9.3 1.02.26L93 49zM68.45 36.7l8.9 1.22s4.86.94 6.93 3.35v-7H68.45v2.44z"/><path d="M52.08 2.1a2.74 2.74 0 0 0-2.73 2.74V9.9c0 1.7.2 3.54-.02 5.22-.21 1.65.05 3.42.06 5.1 0 1.89-.04 3.77-.04 5.65v5.34a2.74 2.74 0 0 0 2.73 2.75h48.02c1.5 0 2.73-1.23 2.73-2.75V4.84a2.74 2.74 0 0 0-2.73-2.74H52.08zm48.02 32.96H52.08a3.84 3.84 0 0 1-3.82-3.85v-1.07c0-6.47-.28-12.87 0-19.34.08-1.98 0-3.96 0-5.95A3.84 3.84 0 0 1 52.08 1h48.02c2.1 0 3.82 1.72 3.82 3.85V31.2a3.84 3.84 0 0 1-3.82 3.85z" fill="#959595" fill-rule="nonzero"/><path d="M100.06 4.05H84.44c-1.19 0-2.36.23-3.53.17-1.28-.06-4.88-.26-5.4-.21-5.06.46-10.33.04-15.42.04h-6.96c-.6 0-1.09.48-1.09 1.08v24.73c0 .6.49 1.07 1.1 1.07h46.92c.6 0 1.09-.48 1.09-1.07 0-2.25.08-4.5.09-6.76 0-2.07-.35-4.18-.28-6.23.05-1.35.19-2.7.21-4.05.05-2.56-.02-5.13-.02-7.7 0-.59-.49-1.07-1.1-1.07m0 1.08v24.73h-4.17c-1.47 0-2.95.05-4.42 0-1.2-.04-2.3.3-3.5.27-.95-.02-1.88-.2-2.83-.3a21.43 21.43 0 0 0-3.4 0c-9.46.52-19.1.03-28.6.03V5.13h46.93" fill="#D0D2D3" fill-rule="nonzero"/><path d="M69.13 35.27h14.61v6.59c0 .14-.05.38.06.48.17.15.6 0 .74-.1.57-.42.28-1.8.28-2.4v-5.58H68.05v6.59c0 .35-.16.96-.06 1.28.09.3.49.48.8.36.45-.16.35-.61.34-.97v-6.25z" fill="#959595" fill-rule="nonzero"/><path d="M103.65 43.09h-.55c-.73 0-1.52.14-2.3.4 1.99.8 3.4 2.73 3.4 4.98h4.9a5.42 5.42 0 0 0-5.45-5.38" fill="#D0D2D3" fill-rule="nonzero"/><path fill="#D0D2D3" fill-rule="nonzero" d="M97.77 48.47v-1.7l4.63-2.6-1.6-.68-3.64 2.29L96 48.24z"/><path d="M96.6 47.93h11.93a4.89 4.89 0 0 0-4.88-4.3h-.55c-2.68 0-6.03 1.97-6.5 4.3zM109.66 49H95.46v-.53c0-3.43 4.56-5.92 7.64-5.92h.55c3.3 0 6 2.66 6 5.92V49z" fill="#959595" fill-rule="nonzero"/><path d="M55.23 43.14h-2.26c-.6 0-1.09.48-1.09 1.08v.53h4.44v-.53c0-.6-.5-1.08-1.1-1.08m5.69 0h-2.25c-.6 0-1.1.48-1.1 1.08v.53H62v-.53c0-.6-.49-1.08-1.1-1.08m23.82 0h-2.25c-.6 0-1.1.48-1.1 1.08v.53h4.44v-.53c0-.6-.48-1.08-1.09-1.08m5.69 0h-2.26c-.6 0-1.09.48-1.09 1.08v.53h4.44v-.53c0-.6-.5-1.08-1.1-1.08m-11.36 0h-14.7c-.6 0-1.1.48-1.1 1.08v.53h16.89v-.53c0-.6-.49-1.08-1.1-1.08" fill="#D0D2D3" fill-rule="nonzero"/><path d="M50.17 48.03c0 .1 6.97.04 7.5 0 .85-.06 5.51-.02 7.15-.01h5.8c2.28.01 4.56 0 6.84.03 5.23.05 10.45-.02 15.68-.02v-2.46c0-.27-.24-.49-.54-.49h-5.61c-3.66 0-7.3-.3-10.97-.25-1.7.03-3.4.23-5.06.25-1.86.02-3.72 0-5.58 0H50.72c-.3 0-.55.22-.55.5v2.45zm44.06.98H49.08v-3.44c0-.81.73-1.47 1.64-1.47H92.6c.9 0 1.63.66 1.63 1.47v3.44zM127.86 38.45c.49.12 1 .01 1.4-.3.4-.3.63-.77.63-1.27V3.2c0-.45-.18-.86-.5-1.17-.33-.3-.77-.47-1.22-.44l-5.72.28-4.94.24c-1.73.09-3.54.34-5.25.35-1.23 0-3.1-.18-3.1 1.6v28.53c0 .74.5 1.39 1.24 1.57l17.46 4.3zm.4 1.12c-.22 0-.45-.02-.67-.08l-17.46-4.3a2.7 2.7 0 0 1-2.07-2.6v-7.1c0-2.15-.28-4.49.02-6.6.1-.7.17-3.84.02-4.74-.25-1.63-.04-3.43-.04-5.08V4.05a2.7 2.7 0 0 1 2.6-2.68L128.12.5a2.72 2.72 0 0 1 2.86 2.69v33.7a2.73 2.73 0 0 1-2.72 2.69z" fill="#959595" fill-rule="nonzero"/><path d="M130.7 39.57H128v-1.08h2.7c1.21 0 2.2-1.18 2.2-2.63V4.22c0-1.45-.99-2.63-2.2-2.63H128V.5h2.7c1.82 0 3.3 1.66 3.3 3.7v5.76c0 1.78-.12 3.52-.1 5.3 0 .52.04 1.04.06 1.56.17 5.59.04 11.24.04 16.85v2.2c0 2.04-1.48 3.7-3.3 3.7" fill="#959595" fill-rule="nonzero"/><path d="M126.32 4h-.06l-14.19.78c-.57.03-1.02.5-1.03 1.07V30.9c0 .48.33.9.8 1.04l14.19 3.88a1.09 1.09 0 0 0 1.38-1.04V5.08c0-.6-.5-1.08-1.09-1.08m0 1.08v29.7l-4.51-1.23c-2.34-.64-4.82-.95-7.1-1.79-.23-.09-2.58-.85-2.58-.86 0-2.04.27-4.08.13-6.13-.14-2.04-.13-10.59-.13-12.85 0-.34-.05-6.06 0-6.07l14.19-.77" fill="#D0D2D3" fill-rule="nonzero"/><path d="M24.04 39.57h-2.7c-1.82 0-3.3-1.66-3.3-3.7V4.2c0-2.04 1.48-3.7 3.3-3.7h2.7v1.07h-2.7c-1.22 0-2.22 1.18-2.22 2.63v31.66c0 1.45 1 2.62 2.22 2.62h2.7v1.08z" fill="#959595" fill-rule="nonzero"/><path d="M23.92 1.58c-.42 0-.82.15-1.12.44-.33.3-.51.73-.51 1.17 0 6.01.06 12.05-.1 18.04-.05 1.69.27 3.3.12 4.98-.15 1.74-.02 3.55-.02 5.3v5.37a1.64 1.64 0 0 0 2.03 1.56l17.46-4.3a1.62 1.62 0 0 0 1.24-1.56V4.05c0-.86-.68-1.57-1.55-1.61L24 1.58h-.09m0 38c-.6 0-1.19-.2-1.67-.58a2.66 2.66 0 0 1-1.05-2.12V3.2A2.73 2.73 0 0 1 24.07.51l4.98.24 2.5.13c.68.03 1.33.2 2.03.21 2.51.04 5.02.13 7.53.25l.41.02a2.7 2.7 0 0 1 2.6 2.69c0 3.67-.22 7.34-.16 11.01.05 3.53.16 7.06.16 10.6v6.92a2.7 2.7 0 0 1-2.07 2.61l-17.46 4.3c-.22.06-.44.08-.67.08" fill="#959595" fill-rule="nonzero"/><path d="M26.06 4.22c-.6 0-1.09.47-1.09 1.07v7.74c.01 1.28.03 4.9.07 5.43.15 1.8-.07 3.72-.07 5.54v11a1.08 1.08 0 0 0 1.39 1.03l14.19-3.88c.47-.13.8-.55.8-1.04V6.07c0-.57-.46-1.04-1.04-1.08l-14.18-.77h-.07zm0 1.07l14.2.78c.03 0 0 3.83 0 4.05 0 2.78.04 5.5.16 8.26.02.64 0 1.28-.04 1.92-.18 3.6-.13 7.2-.13 10.81L26.07 35V5.3zm8.54 36.38c-1.35-2.8-8.15-1.58-8.15-1.58l-.18-1.23 8.33-1.6v4.41z" fill="#D0D2D3" fill-rule="nonzero"/><path d="M23.58 47.86h14.8A36.2 36.2 0 0 0 34 45.2l-7.86 1.04c-.87.5-1.72 1.05-2.55 1.63zm-1.03 0v.54-.54zm17 1.08h-17c-.55 0-.69-.36-.72-.47-.1-.38-.23-.84 3.84-3.22a.55.55 0 0 1 .2-.07l8.15-1.08c.11-.01.23 0 .33.06 3.81 2 5.74 3.42 5.74 4.24 0 .3-.24.54-.54.54z" fill="#959595" fill-rule="nonzero"/><path fill="#959595" fill-rule="nonzero" d="M25.78 46.71v-8.1h1.1v6.87l7.04-.93v-7.83h1.1v8.77z"/><path d="M118.6 41.67c1.34-2.8 8.14-1.58 8.14-1.58l.18-1.23-8.32-1.6v4.41z" fill="#D0D2D3" fill-rule="nonzero"/><path d="M114.3 47.9c1.73 0 3.45-.03 5.17 0 2.25.04 4.46 0 6.7 0 .54 0 2.48-.32 2.94 0a36.71 36.71 0 0 0-2.55-1.63l-7.86-1.04a36.27 36.27 0 0 0-4.4 2.67m15.84 0v.54-.54m0 1.08h-17a.54.54 0 0 1-.55-.54c0-.82 1.94-2.25 5.75-4.24.1-.05.22-.07.33-.06l8.14 1.08c.08.01.15.03.21.07 4.07 2.38 3.94 2.84 3.84 3.22-.03.1-.18.47-.73.47m-10.99-12.6h-1.09v2.87c0 .67-.2 3.97.37 3.97 1.81-.01.18-6.83.72-6.84" fill="#959595" fill-rule="nonzero"/><path d="M127 38.6h-1.08v2.84c0 .6.34 3.54-.13 3.83-1 .6.76 1.38 1.2.27.27-.7.02-1.96.02-2.7V38.6z" fill="#959595" fill-rule="nonzero"/><path fill="#F9F9F9" fill-rule="nonzero" d="M31 32.26h105V8H31z"/><path d="M31.89 27c0-.35.13-.66.4-.94a5.16 5.16 0 0 1 .92-.8c.09 1.7 1.15 2.56 3.2 2.56 1.6 0 3.48-.54 5.63-1.63.74-.36 3.75-1.86 3.23-3.05-.18-.39-.67-.4-1.04-.5l-1.83-.43-5.16-1.26-2.73-.66a2.26 2.26 0 0 1-.9-.48c-.54-.41-.81-.79-.81-1.12 0-1.3.84-2.47 2.54-3.51 1.87-1.15 4.37-2 7.5-2.59.53-.1 1.05-.18 1.59-.22l.48.1c.21.02.43.06.66.12.53.13.76.37.67.73 0 .64-1.12 1.14-3.37 1.52-2.9.47-4.72.86-5.44 1.18-.72.32-1.24.64-1.56.98-.31.33-.5.76-.5 1.21 0 .1.2.2.6.31l1.42.4c2.82.83 5.64 1.68 8.45 2.56 1.05.33 1.86.34 1.86 1.65 0 1-.54 1.95-1.61 2.86a15.03 15.03 0 0 1-5.04 2.62c-1.78.58-3.2.87-4.26.87-.86 0-1.72-.17-2.51-.5-.8-.34-1.4-.67-1.8-.99-.4-.32-.6-.65-.6-1zm19.39-6.4c0 4.42 2.06 6.63 6.17 6.63 2.03 0 3.67-.65 4.94-1.97a6.97 6.97 0 0 0 1.89-5.08 5.1 5.1 0 0 0-2.26-4.5 8.24 8.24 0 0 0-4.85-1.35c-1.56 0-2.93.61-4.13 1.83a6.15 6.15 0 0 0-1.76 4.44zm-1.5 4.13a9.34 9.34 0 0 1-.63-3.57c0-1.37.2-2.58.6-3.64a8.47 8.47 0 0 1 1.68-2.74 7.46 7.46 0 0 1 5.66-2.39c2.37 0 4.33.6 5.87 1.77 1.73 1.35 2.6 3.28 2.6 5.8 0 3.1-.67 5.4-2 6.88-1.32 1.48-3.38 2.22-6.18 2.22-3.9 0-6.43-1.45-7.6-4.33zm19.04.06c-.97-.15-1.45-.4-1.45-.74 0-.24.16-.52.5-.84l.98-.98c0-1.13-.16-2.39-.47-3.78a84.66 84.66 0 0 1-.67-3.25 12 12 0 0 1-.21-2.1c0-.64.09-1.05.27-1.21.18-.17.45-.26.8-.26.34 0 .56.06.67.16.1.1.17.23.2.38.04.15.06.3.07.48 0 .17.04.32.1.47.08.36.35.54.8.54 1.16-.02 2.32-.13 3.47-.33l3.46-.6c1.01-.18 3.08-.9 4.09-.62.18.05.26.25.31.43.32 1.1.69 1.41-.47 1.68-.88.2-1.93.1-2.83.17-1.55.11-3.1.25-4.64.48-.65.1-3.7.35-3.7 1.43a18.05 18.05 0 0 0 .58 4.78c.08.22.17.33.27.33.99 0 1.99-.09 3-.28.4-.07 2.23-.73 2.5-.32.05.08.08.17.09.27l.11.85c.01.08.02.18-.02.25-.05.1-.16.13-.27.17-.79.23-1.58.34-2.4.47-1.71.26-2.7.6-2.98 1.04l-.29 5.5c-.16.2-.4.31-.65.32l-.96-.09h-.26v-4.8zm27.72-9.14l-2.3-.05c-.71 0-1.42.07-2.11.2-.05.94-.12 1.89-.2 2.83-.37 4.12-.55 6.8-.55 8.02 0 1.23.02 2.1.05 2.6l-2.44.2.8-13.88-5.52-.34c-.14 0-.25-.12-.33-.36a2.22 2.22 0 0 1-.12-.68c0-.2.08-.43.24-.67.15-.25.34-.37.54-.37 1.27.06 2.54.15 3.82.28 2.37.23 4.39.34 6.05.34l1.6-.06c1.27-.03 2.53-.18 3.77-.45.28.06.45.53.52 1.4l.02.46c-1.14.36-2.42.53-3.84.53zm24.6 9.14c.87-3.04 1.88-8.58 3.02-16.64 1.09 0 1.66.36 1.71 1.1l.04.47a256.1 256.1 0 0 1-1.52 10.85 99.04 99.04 0 0 1-1.81 8.49c-.63.47-1.11.54-1.46.22-.18-.2-.32-.43-.41-.69l-.42-1a20.3 20.3 0 0 1-1.24-2.52l-1.47-3.26c-.35-.76-.7-1.5-1.08-2.25-.8-1.56-1.46-2.46-2-2.73-.62 1.05-1.73 3.93-3.32 8.63-.28.82-.53 1.59-.75 2.3l-.57 1.7-1.61-.1-6.5-16.24a.78.78 0 0 1-.04-.28c0-.1.03-.18.09-.28.08-.11.2-.2.32-.25.3-.11.6-.17.89-.17.29 0 .5.06.63.18.14.13.24.3.31.47.08.18.14.39.2.61a6 6 0 0 0 .3.88l.64 1.57a172.6 172.6 0 0 0 1.91 4.48c.33.76.64 1.46.94 2.1.62 1.4 1 2.19 1.17 2.36 2-5.36 3.24-8.54 3.7-9.54l.89-1.85c.19-.31.34-.47.44-.47.74 0 2 1.8 3.76 5.4.49.95.94 1.87 1.35 2.75a40.9 40.9 0 0 0 1.9 3.7zm12.96-11.7c-.16 1.21-.47 2.4-.94 3.52-.37.94-.76 1.87-1.16 2.8-.3.66-.55 1.27-.76 1.83 1.18 0 2.63-.37 4.34-1.12.43-.2.85-.4 1.24-.56-.81-3.77-1.72-5.92-2.72-6.46zm6.49 6.08h.73c.29 0 .57.02.84.08s.4.26.4.62c.12.75-.28 1.11-1.22 1.1a51.6 51.6 0 0 1-.71-.06 3.72 3.72 0 0 0-.54-.02c-.13.01-.2.06-.18.16.18.54.36 1.15.56 1.82.2.68.42 1.35.66 2.03a14.92 14.92 0 0 0 1.77 3.6 5.13 5.13 0 0 1-1.65 1.38.09.09 0 0 1-.06-.04l-3.66-8.34-7.1 1.88-.25 1.18c-.5 2.16-1.06 3.66-1.69 4.5-.1.19-.32.2-.65.05-.55-.22-.83-.4-.83-.56 0-.04.19-.58.55-1.63l1.1-3.19 1.17-3.38c.4-1.18.8-2.3 1.15-3.38l.99-2.88c.3-.85.5-1.47.62-1.85.12-.39.2-.72.25-1.01.03-.26.1-.5.2-.75.17-.43.6-.64 1.3-.64a4.78 4.78 0 0 1 1.72 1.75c.4.72.75 1.5 1.04 2.32l.84 2.5c.28.84.65 1.61 1.12 2.3.14.26.4.42.7.43l.83.03zm14.61-6.07l-1.69-.03c-3.9 0-6.16.48-6.75 1.46-.17.26-.25.6-.25 1s.01.75.05 1.05c.08.77.28 1.32.6 1.66a.9.9 0 0 0 .27.03c.13 0 .37-.04.72-.12.49-.1.96-.24 1.43-.4a38.92 38.92 0 0 0 3.85-1.59c1.96-.96 2.94-1.73 2.94-2.33 0-.34-.4-.58-1.17-.73zm-8.77-.34c.95-1 2.67-1.49 5.16-1.49 1.56 0 2.87.17 3.92.5 1.06.34 1.85.7 2.38 1.07.52.38.79.79.79 1.24 0 1.03-1.11 2.05-3.33 3.06-.32.17-1.19.51-2.58 1.03-1.4.51-2.33.86-2.81 1.05-1.06.43-1.76.77-2.1 1.01 0 .1.03.18.1.24.07.07.23.18.49.34l1.17.67 2.15 1.25c2.84 1.68 5.65 3.4 8.44 5.18.14.1.32.26.54.46.23.2.34.41.34.65 0 .23-.07.4-.2.49-.15.09-.31.16-.5.2-.2.06-.4.08-.6.08h-.52c-.34 0-1.06-.4-2.16-1.21l-2.86-2.1c-.8-.6-1.62-1.19-2.45-1.75a22.07 22.07 0 0 0-4.65-2.67v6.43c0 .38-.3.57-.88.57H146c-.37 0-.64-.2-.81-.6-.24-.6-.36-1.7-.36-3.3l.07-5.66c0-2.77-.1-5.2-.33-7.3.41-.77.92-.74 1.53.08l.34.48zm25.04-1.15c1.73 0 2.88.12 3.45.36v1.38c-.46.07-1.1.12-1.92.13-.8 0-1.67.02-2.6.04-2.55.05-4.3.2-5.23.42-.3 1.5-.44 2.52-.42 3.06l.05 1.27c.07.73.1 1.59.1 2.58 1.18 0 2.53-.11 4.04-.34.85-.12 3.06-.9 3.63-.1.21.3.28.69.34 1.06.01.1.02.23-.06.3-.05.05-.13.05-.2.06-2.53.18-5.04.6-7.56.93l.15 4.61c1.72 0 3.47-.09 5.26-.27 2.06-.2 3.86-.13 5.91-.05.07 0 .14 0 .2.05.07.05.09.15.1.24.07.49.05 1.12-.42 1.28-.11.04-.24.04-.36.05-2.68.01-5.34.36-8 .36l-4.84.42.1-17.93a9.2 9.2 0 0 0 2.5.23l5.78-.14zm26.37 0c1.73 0 2.88.12 3.45.36v1.38c-.46.07-1.1.12-1.92.13-.8 0-1.68.02-2.6.04-2.55.05-4.3.2-5.23.42-.3 1.5-.44 2.52-.42 3.06l.05 1.27c.07.73.1 1.59.1 2.58 1.18 0 2.53-.11 4.04-.34l3.52-.49a21 21 0 0 1 2.57-.15v1.54l-9.94 1.35.15 4.61c1.71 0 3.47-.09 5.26-.27l4.07-.39c.98-.09 1.97-.13 2.95-.13 0 .38-.1.74-.31 1.07-.42.6-.79.78-1.12.54-3.04.35-5.76.63-8.16.84l-4.84.42.1-17.93c.45.15 1.28.23 2.5.23l5.78-.14zm22.35 8.38c0 5.44-.22 8.62-.65 9.55l-1.9-.16a77.63 77.63 0 0 0-4.8-7.16l-2.63-3.62a54.89 54.89 0 0 1-2.4-3.57c-.35 1.6-.52 4.78-.52 9.55 0 1.82-.03 3.36-.1 4.61a1.5 1.5 0 0 1-1.08.49c-.39 0-.66-.04-.82-.12-.15-.08-.23-.22-.23-.4 0-.2.02-.49.06-.9a200.75 200.75 0 0 0 .53-12.15c0-1.98-.01-3.63-.05-4.91.38-.36.68-.62.89-.78.2-.16.44-.16.7.01.26.17.59.54 1 1.1.4.57.98 1.4 1.72 2.5 2.42 3.57 4.92 7.08 7.5 10.52l.5-13.35c.19-.36.38-.6.57-.74.19-.14.44-.2.75-.2.6 0 .9.57.9 1.71l-.02 1 .08 7.02zm13.76 10.84v-5.15a57.97 57.97 0 0 1-3.43 2.42 7.97 7.97 0 0 1-3.92 1.32c-1.35 0-2.5-.53-3.48-1.6a5.53 5.53 0 0 1-1.48-3.8c.09-1.5.38-3 .89-4.54 1.03-3.26 2.76-5.65 5.16-7.17a7.45 7.45 0 0 1 4.13-1.15h.1l.7-.03c.8 0 1.16.34 1.1 1.01a9.6 9.6 0 0 0-3.9 1.04c-1.2.61-2.28 1.46-3.15 2.49-.9 1.04-1.6 2.25-2.1 3.64a12.2 12.2 0 0 0-.77 4.24c0 1.44.34 2.48 1.04 3.12.69.64 1.58.95 2.67.95.93 0 2.23-.44 3.9-1.32a6.81 6.81 0 0 0 2.35-1.9c.26-.35.4-.7.4-1.08v-4.15c-.53 0-1.73.21-3.63.64-1.9.43-2.99.68-3.28.73l-.31-.18a.37.37 0 0 1-.21-.3c-.03-.28.35-.7 1.14-1.29.2-.11 1.33-.33 3.43-.66a696.2 696.2 0 0 0 5.42-.85c.18.03.4.03.65-.02.26-.05.5-.06.73-.04.55.02.81.35.78.98l-2.16.96c-.33 1.14-.5 3.3-.5 6.46l.06 4.19v1.04c-.52.28-1.02.42-1.5.42-.49 0-.77-.14-.83-.42zM242.2 29c0 .32-.2.48-.62.48-.31 0-.69-.16-1.12-.48-.2-.5-.31-1.71-.31-3.62a171.14 171.14 0 0 1 .16-8.18l.15-3.63c.5-.31.92-.47 1.25-.47.32 0 .49.16.49.47V29zm16.56-5.31a34.1 34.1 0 0 1-.16 5.25c-.01.15-.03.31-.12.43-.26.34-.98.08-1.37.05a79.7 79.7 0 0 0-4.87-7.06l-2.76-3.73a67.22 67.22 0 0 1-2.69-3.92c-.34 1.56-.41 5.29-.41 9.97 0 1.79-.04 3.3-.1 4.52-.33.32-.7.48-1.08.48-.4 0-.66-.04-.82-.12-.16-.08-.23-.21-.23-.4 0-.29.02-.58.06-.86a217.02 217.02 0 0 0 .32-4.93c.14-2.7.21-5.03.21-6.99 0-.63-.46-6.86 1.54-5.57.25.16.59.52 1 1.07.4.56.98 1.38 1.72 2.46 2.42 3.5 4.92 6.93 7.5 10.31l.5-13.1c.18-.35.37-.59.56-.72.2-.13.45-.2.76-.2.6 0 .9.57.9 1.69l-.02.97c.01 1.02-.5 9.65-.44 10.4zm10.93-12.08c.51 0 1.1.1 1.6-.04s1-.25 1.51-.34c.05 0 .1 0 .13.02l.03.07c.13.6.16 1.2.07 1.8 0 .04 0 .08-.03.1a.2.2 0 0 1-.08.05c-.53.22-1.14.2-1.7.2l-2.6.05c-2.55.05-4.3.2-5.24.42-.3 1.5-.43 2.52-.41 3.06.01.55.03.97.05 1.27.07.73.1 1.59.1 2.58 1.18 0 2.53-.11 4.04-.34.4-.06.8-.13 1.2-.17.24-.03.62.09.8-.07.14.4.16.83.18 1.24.04.7-1.13.59-1.64.66l-4.4.6.16 4.6a53 53 0 0 0 5.26-.27l4.07-.39c.98-.09 1.96-.13 2.95-.13a2 2 0 0 1-.32 1.07c-.4.6-.78.78-1.11.54-3.05.35-5.77.63-8.16.84l-4.84.42.1-17.93a9.2 9.2 0 0 0 2.5.23l5.78-.14zm16.82.06c1.73.07 2.88.24 3.44.5l-.06 1.38c-.64.06-1.28.08-1.92.05l-2.6-.06c-2.56-.04-4.31.03-5.25.22-.36 1.48-.54 2.5-.54 3.04v1.26c.04.87.04 1.73 0 2.6 1.35.03 2.7-.03 4.04-.19l2.37-.24c.26-.03.53-.15.67.11.16.31.07.77.05 1.1-.02.42-.08.53-.5.54-.98.02-1.96.15-2.93.24-.22.03-3.6.3-3.6.35l-.03 4.61c1.71.07 3.46.05 5.26-.06l4.09-.23c.72-.04 1.6-.31 1.62.63.01.4.24.84.03 1.19a.25.25 0 0 1-.07.09c-.07.04-.16.03-.24.02a12.3 12.3 0 0 0-1.95-.04c-.99.03-1.93-.07-2.92-.01-1.07.07-2.14.12-3.2.17l-4.86.23.21-4.46.4-8.43.11-2.6.05-1.02c0-.15-.04-.4.04-.54.16-.29.75-.47 1.05-.55.45-.14 1 0 1.46.01l5.78.1zm16.94 1.43l-1.68-.03c-3.92 0-6.16.48-6.75 1.46-.18.26-.26.6-.26 1s.02.75.05 1.05c.09.77.29 1.32.6 1.66a.9.9 0 0 0 .27.03c.13 0 .37-.04.73-.12.48-.1.96-.24 1.42-.4a38.98 38.98 0 0 0 3.85-1.59c1.96-.96 2.94-1.73 2.94-2.33 0-.34-.39-.58-1.17-.73zm-8.77-.34c.95-1 2.67-1.49 5.16-1.49 1.56 0 2.87.17 3.92.5 1.06.34 1.85.7 2.38 1.07.53.38.8.79.8 1.24 0 1.03-1.12 2.05-3.33 3.06-.33.17-1.2.51-2.58 1.03-1.4.51-2.34.86-2.82 1.05a12.6 12.6 0 0 0-2.1 1.01c0 .1.03.18.1.24.07.07.23.18.5.34a115 115 0 0 1 3.32 1.92c2.84 1.68 5.65 3.4 8.43 5.18.14.1.32.26.55.46.22.2.34.41.34.65 0 .23-.07.4-.21.49-.14.09-.3.16-.5.2-.2.06-.4.08-.6.08h-.51c-.35 0-1.07-.4-2.17-1.21l-2.86-2.1c-.8-.6-1.62-1.19-2.45-1.75a22.07 22.07 0 0 0-4.64-2.67v6.43c0 .38-.3.57-.89.57h-.28c-.36 0-.63-.2-.8-.6-.25-.6-.37-1.7-.37-3.3l.08-5.66c0-2.77-.11-5.2-.34-7.3.42-.77.93-.74 1.53.08l.34.48zm18.6 16.17c0 .37-.2.55-.61.55-.32 0-.69-.18-1.12-.55-.2-.58-.31-1.97-.31-4.17a227.56 227.56 0 0 1 .16-9.4l.15-4.18c.5-.36.92-.55 1.25-.55.33 0 .49.19.49.55v17.75zm16.66-9.54c-.18 2.42-.37 4.85-.4 7.28-.01.55.32 2.48-.25 2.83-.17.1-1.37.05-1.47-.12a79.55 79.55 0 0 0-4.8-7.31l-2.63-3.7a56.34 56.34 0 0 1-2.4-3.64c-.35 1.63-.52 4.87-.52 9.74 0 1.57-.03 3.14-.1 4.71-.33.33-.7.5-1.08.5a1.9 1.9 0 0 1-.82-.13c-.16-.08-.23-.22-.23-.4 0-.2.02-.5.06-.91a232.24 232.24 0 0 0 .33-5.13 152.86 152.86 0 0 0 .15-12.3c.28-.27.58-.54.88-.79.21-.16.45-.16.7.02.26.17.6.86 1 1.43.41.58.99 1.43 1.73 2.56 2.54 3.82 5.04 7.4 7.5 10.73l.5-13.94c.19-.37.37-.62.56-.76.2-.13.45-.2.76-.2.6 0 .9.58.9 1.75 0 2.6-.18 5.19-.37 7.78zm14.48 10.17a.38.38 0 0 1-.27-.2c-.2-.35-.03-1.2-.03-1.6v-2.08a58.49 58.49 0 0 1-3.42 2.42 7.98 7.98 0 0 1-3.92 1.32 4.54 4.54 0 0 1-3.48-1.6 5.53 5.53 0 0 1-1.48-3.8c.09-1.5.38-3 .88-4.54 1.04-3.26 2.76-5.65 5.17-7.17a7.46 7.46 0 0 1 4.13-1.15h.1l.7-.03c.8 0 1.16.34 1.1 1.01a9.58 9.58 0 0 0-3.9 1.04c-1.2.61-2.28 1.46-3.16 2.49-.89 1.04-1.59 2.25-2.1 3.64-.5 1.35-.76 2.79-.76 4.24 0 1.44.34 2.48 1.04 3.12.69.64 1.58.95 2.67.95.93 0 2.23-.44 3.9-1.32a6.84 6.84 0 0 0 2.35-1.9c.25-.31.39-.69.4-1.08v-4.15c-.53 0-1.73.21-3.63.64-1.9.43-2.99.68-3.28.73a4.8 4.8 0 0 0-.31-.18.37.37 0 0 1-.21-.3c-.04-.28.35-.7 1.14-1.29.19-.11 1.33-.33 3.43-.66a626.95 626.95 0 0 0 5.42-.85c.17.03.39.03.65-.02.24-.05.48-.06.73-.04.55.02.81.35.77.98l-2.15.96c-.33 1.14-.49 3.3-.49 6.46l.02 1.45c0 .5.27 1.87-.17 2.22-.19.15-.47.07-.71.08-.3 0-.8.28-1.13.2z" fill="#1D3F6A" fill-rule="nonzero"/><path d="M27.94 28.01v-.18a1.93 1.93 0 0 0-1.54-1.76 2.57 2.57 0 0 0-.46-.04H9.65c-.34 0-.67.08-.96.24-.6.33-.65.96-.66 1.64v.5a.9.9 0 0 1-.2.23c-.28.22-.8.36-1.14.38-1.55.05-3.34.18-4.6 1.14a5.12 5.12 0 0 0-2.01 3.45c-.15 1.25-.03 2.56-.03 3.8 0 .7-.12 1.5.02 2.16a8.22 8.22 0 0 0 1.24 3.16c.11.16.24.3.36.46a4.16 4.16 0 0 0 2.06 1.34c.49.13 1 .2 1.5.2h2.45c.15 1.72.97 3.48 2.48 4.36 1.5.87 3.33.92 5.07.9 4.02-.02 12.17.63 12.53-3.95.13-.43.17-.88.18-1.32V28z" fill="#FFF" fill-rule="nonzero"/><path d="M20.91 27.08c.6 0 1.1.48 1.1 1.07 0 2.85.22 5.71.02 8.53-.07 1-.14 2-.12 2.99.05 2.06.73 4.48-.26 6.44-.9 1.76-3.15 2.9-5.1 2.9h6.54c2.41 0 4-1.92 4-4.3V28.15c0-.6-.48-1.07-1.08-1.07h-5.1z" fill="#D0D2D3" fill-rule="nonzero"/><path d="M26.02 43.81c0 .8.01 1.34-.2 1.9-.21.57-.56 1.08-1.02 1.46-.99.86-2.36.84-3.6.87-1.55.04-3.1-.08-4.66-.09-1.14 0-1.91.21-3.06.12a4.5 4.5 0 0 1-2.6-1c-.45-.4-.85-.93-.96-1.54-.12-.7-.33-1.6-.91-2.16-.46-.44-1.27-.34-1.86-.34H5.23c-1.96 0-3.24-1.49-3.24-3.41V34.2c0-1.93 1.78-3.23 3.24-3.23h2.79v1.05H5.15c-1.05 0-2.14 1.07-2.14 2.1l.02 3c0 .97-.08 1.86-.03 2.84.03.47.22 1.02.58 1.31.38.3 1.06.73 1.54.73a28.8 28.8 0 0 1 3.72.05c.62.11.79.82.93.81.3-.02.18-2.12.2-2.9.04-2.87-.03-4.78.05-7.24v-4.45-.03l.02-.06a.25.25 0 0 1 .19-.14H17.82c1.35 0 2.7-.2 4.04-.15 1.31.05 2.37.15 3.69.15H25.85c.08.03.14.1.16.18v4.62c0 .93-.04 1.87.06 2.78.1 1.01-.08 2.05-.1 3.06-.04.99.1 2 .05 2.97-.04.77 0 1.4 0 2.16zM5.37 40.03c-.15 0-.26-.12-.28-.27-.1-.68-.04-2.57-.06-3.14 0-.32 0-1.03-.05-1.34a1.8 1.8 0 0 1 .08-.93c.07-.16.19-.32.36-.37.2-.06 1.64-.02 2.59.03v2.38c0 1.37-.04 2.23.01 3.62l-2.65.02zm22.57-12.02v-.18a1.93 1.93 0 0 0-1.54-1.76 2.57 2.57 0 0 0-.46-.04H9.65c-.34 0-.67.08-.96.24-.6.33-.65.96-.66 1.64v.5a.9.9 0 0 1-.2.23c-.28.22-.8.36-1.14.38-1.55.05-3.34.18-4.6 1.14a5.12 5.12 0 0 0-2.01 3.45c-.15 1.25-.03 2.56-.03 3.8 0 .7-.12 1.5.02 2.16a8.22 8.22 0 0 0 1.24 3.16c.11.16.24.3.36.46a4.16 4.16 0 0 0 2.06 1.34c.49.13 1 .2 1.5.2h2.45c.15 1.72.97 3.48 2.48 4.36 1.5.87 3.33.92 5.07.9 4.02-.02 12.17.63 12.53-3.95.13-.43.17-.88.18-1.32V28z" fill="#2B2B2B" fill-rule="nonzero"/><rect fill="#BE1E2D" x="4" y="15" width="13" height="4" rx="2"/><rect fill="#BE1E2D" x="11" y="10" width="13" height="4" rx="2"/><rect fill="#BE1E2D" x="13" y="20" width="10" height="4" rx="2"/><path d="M5.06 49c33.16-.1 74.59-.1 124.28 0h13.77c5.32.1 7.85.21 7.6.35-.26.14-3.33.3-9.2.5 3.5.34 5 .58 4.47.71-.13.1-2.13.25-5.98.44-57.38.16-102.28.16-134.7 0-1.44 0-.21-.22 3.66-.65-2.8-.17-4.4-.35-4.77-.52-.32-.14.58-.3 2.7-.44-5.8-.25-6.4-.38-1.83-.39z" fill="#303030"/></g></svg>